<?xml version="1.0" standalone="no"?>
<!DOCTYPE svg PUBLIC "-//W3C//DTD SVG 20010904//EN"
 "http://www.w3.org/TR/2001/REC-SVG-20010904/DTD/svg10.dtd">
<svg version="1.0" xmlns="http://www.w3.org/2000/svg"
 width="48.000000pt" height="48.000000pt" viewBox="0 0 48.000000 48.000000"
 preserveAspectRatio="xMidYMid meet">

<g transform="translate(0.000000,48.000000) scale(0.100000,-0.100000)"
fill="#000000" stroke="none">
<path d="M1 345 l1 -135 24 0 c14 0 27 7 30 15 5 12 9 13 20 4 12 -10 13 -3 8
47 -4 32 -8 66 -8 74 -1 12 20 16 108 22 60 4 114 12 120 18 18 18 24 11 46
-61 25 -84 19 -99 -44 -100 -80 -1 -83 -9 -22 -62 30 -26 61 -47 68 -47 8 0
22 -6 33 -13 17 -13 15 -14 -15 -21 -19 -3 -54 -3 -80 0 -43 6 -48 9 -75 61
-17 30 -36 59 -43 65 -22 19 -27 -2 -10 -48 l16 -44 -44 0 -44 0 0 40 c0 39 0
39 -26 28 -20 -9 -30 -9 -45 0 -15 10 -19 9 -19 -2 0 -8 6 -17 13 -19 10 -4
10 -6 0 -6 -9 -1 -13 -24 -13 -81 l0 -80 240 0 240 0 -1 240 0 240 -240 0
-239 0 1 -135z m348 -142 c-15 -18 -64 -17 -79 2 -11 14 -6 15 38 14 42 -2 50
-5 41 -16z"/>
<path d="M160 296 c0 -24 3 -26 40 -26 27 0 43 5 47 15 8 21 1 26 -46 32 -39
5 -41 4 -41 -21z"/>
</g>
</svg>
